# xmcd
#
# Track frame offsets:
#	150
#	13585
#	28498
#	45459
#	60822
#	76496
#	94508
#	112783
#	127272
#	140887
#	156792
#	173694
#	189921
#	204032
#	216670
#	231404
#
# Disc length: 3255 seconds
#
# Revision: 2
# Processed by: cddbd v1.5.2PL0 Copyright (c) Steve Scherf et al.
# Submitted via: audiograbber 1.83.01
#
DISCID=d60cb510
DTITLE=Party Tyme - SYB1139
DYEAR=2018
DGENRE=Karaoke
TTITLE0=Bebe Rexha ft Florida Georgia Line - Meant to Be
TTITLE1=Kane Brown ft. Lauren Alaina - What Ifs
TTITLE2=LANCO - Greatest Love Story
TTITLE3=Dustin Lynch - Small Town Boy
TTITLE4=Thomas Rhett - Marry Me
TTITLE5=Billy Currington - Do I Make You Wanna
TTITLE6=Scotty McCreery - Five More Minutes
TTITLE7=Chris Stapleton - Broken Halos
TTITLE8=Kane Brown - Heaven
TTITLE9=Jon Pardi - Heartache on the Dance Floor
TTITLE10=Eric Church - Round Here Buzz
TTITLE11=Russell Dickerson - Yours
TTITLE12=Chris Janson - Fix a Drink
TTITLE13=Thomas Rhett - Unforgettable
TTITLE14=Chris Young - Losing Sleep
TTITLE15=Florida Georgia Line - Smooth
EXTD=Super Hits 31
EXTT0=
EXTT1=
EXTT2=
EXTT3=
EXTT4=
EXTT5=
EXTT6=
EXTT7=
EXTT8=
EXTT9=
EXTT10=
EXTT11=
EXTT12=
EXTT13=
EXTT14=
EXTT15=
PLAYORDER=
